<svg width="26" height="26" viewBox="0 0 26 26" fill="none" xmlns="http://www.w3.org/2000/svg">
<path d="M18.3176 10.1724H19.2805C20.5634 10.1724 20.9447 10.3563 20.9138 11.2697C20.8627 12.7827 20.1804 14.5407 17.4512 15.0225" stroke="white" stroke-width="1.41176" stroke-linecap="round"/>
<path d="M9.79286 17.1804C7.45482 15.3828 7.11034 12.833 7.05958 10.1724C7.03766 9.0231 7.37126 8.78662 8.90107 8.78662H16.3021C17.8319 8.78662 18.1655 9.0231 18.1436 10.1724C18.0928 12.833 17.7483 15.3828 15.4103 17.1804C14.7449 17.692 14.1835 17.794 13.2386 17.794H11.9646C11.0197 17.794 10.4582 17.692 9.79286 17.1804Z" stroke="white" stroke-width="1.41176" stroke-linecap="round"/>
<path d="M9.78606 5.35303C9.78606 5.35303 9.41211 5.69946 9.41211 6.39234" stroke="white" stroke-width="1.41176" stroke-linecap="round" stroke-linejoin="round"/>
<path d="M13.8475 3C13.4686 3.23461 12.9414 4.03931 12.9414 5.07862" stroke="white" stroke-width="1.41176" stroke-linecap="round" stroke-linejoin="round"/>
<path d="M15.6403 5.35303C15.4508 5.47033 15.293 6.0459 15.293 6.39234" stroke="white" stroke-width="1.41176" stroke-linecap="round" stroke-linejoin="round"/>
<path d="M0.705882 18.9998H25.1765V20.1763C25.1765 21.3458 24.2284 22.2939 23.0588 22.2939H2.82353C1.65399 22.2939 0.705882 21.3458 0.705882 20.1763V18.9998Z" stroke="white" stroke-width="1.41176"/>
</svg>
