<svg width="284" height="283" viewBox="0 0 284 283" fill="none" xmlns="http://www.w3.org/2000/svg">
<circle cx="135" cy="148" r="135" fill="white"/>
<mask id="mask0_1543_1890" style="mask-type:alpha" maskUnits="userSpaceOnUse" x="0" y="13" width="270" height="270">
<circle cx="135" cy="148" r="135" fill="#FBFBFF"/>
</mask>
<g mask="url(#mask0_1543_1890)">
<path d="M166.179 188.457C188.51 185.73 194.098 198.014 194.098 198.014C194.098 198.014 198.556 214.645 200.663 220.589C202.47 225.687 202.92 230.072 202.996 231.218V231.763L203.015 254.771C203.015 256.426 202.525 258.081 201.472 259.361C198.331 263.141 198.423 267.6 198.423 267.6L196.184 509.107C202.504 556.367 230.48 576.044 244.666 583.099C249.783 585.638 253 590.851 253 596.55V745.499C253 751.857 249.848 757.908 244.102 760.627C208.231 777.606 149.842 775.594 134.383 774.712C118.924 775.594 60.5261 777.589 24.6659 760.627C18.9176 757.906 15.7637 751.857 15.7637 745.499V596.55C15.7637 590.851 18.9809 585.638 24.0981 583.099C38.3011 576.044 66.2576 556.384 72.5802 509.107L70.3404 267.6C70.3404 267.6 70.4353 263.141 67.292 259.361C66.2386 258.081 65.7488 256.426 65.7488 254.771V231.763C65.7488 231.556 65.7488 231.368 65.7678 231.161C65.8628 229.958 66.3125 225.63 68.1005 220.57C70.2074 214.626 74.6659 197.995 74.6659 197.995C74.6659 197.995 80.2538 185.711 102.584 188.438H166.173V188.457H166.179Z" fill="url(#paint0_linear_1543_1890)"/>
<ellipse cx="135.159" cy="204.927" rx="33.7688" ry="10.8543" fill="url(#paint1_linear_1543_1890)"/>
<path d="M147.221 184.428C147.221 180.431 143.981 177.191 139.985 177.191H129.131C125.134 177.191 121.895 180.431 121.895 184.428V201.312C121.895 205.308 125.134 208.548 129.131 208.548H139.985C143.981 208.548 147.221 205.308 147.221 201.312V184.428Z" fill="url(#paint2_linear_1543_1890)"/>
<path d="M134.578 188.51C170.341 188.51 199.334 159.517 199.334 123.754C199.334 87.9909 170.341 59 134.578 59C98.8153 59 69.8223 87.993 69.8223 123.756C69.8223 159.519 98.8132 188.512 134.578 188.512V188.51Z" fill="url(#paint3_linear_1543_1890)"/>
<path d="M179.645 92.6172H89.7832C86.5638 92.6172 83.9531 95.2361 83.9531 98.4658V149.295C83.9531 152.525 86.5638 155.144 89.7832 155.144H179.645C182.865 155.144 185.475 152.525 185.475 149.295V98.4658C185.475 95.2361 182.865 92.6172 179.645 92.6172Z" fill="url(#paint4_linear_1543_1890)"/>
<rect x="106" y="108" width="21" height="20" rx="4.70632" fill="white"/>
<rect x="144" y="108" width="21" height="20" rx="4.70632" fill="white"/>
<path d="M125 141.839C127.973 139.323 137.101 132.339 147 141.839" stroke="white" stroke-width="4.11714" stroke-linecap="round"/>
</g>
<path d="M193.737 44.646C195.227 41.3383 196.866 38.0948 198.554 34.8775C199.381 33.3039 200.504 31.8906 201.401 30.3514C202.418 28.6247 203.867 27.2499 205.007 25.6356C205.821 24.4966 206.739 23.4792 207.843 22.606C208.723 21.9141 209.612 21.2177 210.431 20.4451C214.206 16.8535 218.936 15.2172 223.794 13.8361C226.16 13.1594 228.611 13.0779 231.031 12.7447C234.414 12.2731 237.739 12.6498 241.066 13.2429C241.586 13.3372 242.108 13.4489 242.628 13.5432C244.838 13.9523 247.059 14.3322 249.122 15.2916C250.733 16.041 252.443 16.6783 253.895 17.6753C258.023 20.5232 261.175 24.3667 264.233 28.2832C265.541 30.8014 267.016 33.2494 268.127 35.8517C269.318 38.6411 270.201 41.5648 271.164 44.4519C271.453 45.3223 271.63 46.2501 271.704 47.1645C272.028 51.2558 272.011 55.3277 271.215 59.3995C270.524 62.922 269.676 66.3529 268.137 69.6171C267.147 71.7183 266.046 73.7371 264.577 75.5438C262.908 77.5992 261.167 79.5783 259.288 81.4395C257.305 83.4028 255.188 85.1918 252.883 86.7285C250.294 88.4494 247.581 89.9669 244.929 91.5898C243.078 92.7318 241.152 93.7631 239.625 95.3909C239.099 95.9575 238.349 96.3245 237.694 96.7686C236.821 97.355 235.867 97.8452 235.074 98.5278C233.369 99.9895 231.735 101.528 230.086 103.06C229.797 103.325 229.552 103.649 229.324 103.97C228.298 105.411 226.804 106.263 225.37 107.196C225.227 107.292 225.019 107.273 224.707 107.331C225.107 105.523 225.462 103.923 225.811 102.321C225.913 101.87 225.954 101.404 226.077 100.961C226.554 99.2819 226.579 97.5672 226.381 95.8522C226.173 94.0089 225.872 92.1477 224.816 90.5771C223.248 88.2439 221.306 86.2688 218.683 85.1006C216.999 84.3487 215.266 83.7032 213.574 82.973C211.881 82.2429 210.175 81.5492 208.747 80.2876C207.562 79.2409 206.292 78.2453 204.931 77.4482C202.956 76.2977 201.519 74.527 199.704 73.2126C199.548 73.0965 199.429 72.9277 199.314 72.7688C198.31 71.4581 197.254 70.1776 196.316 68.825C195.567 67.7419 195.019 66.543 194.569 65.2812C193.871 63.3299 193.669 61.2903 193.228 59.2938C192.59 56.4451 192.362 53.5418 192.5 50.6342C192.594 48.5803 192.917 46.5123 193.762 44.6469L193.737 44.646Z" fill="#1F1E1F"/>
<path d="M215.831 55L215.831 46.672L216.959 46.672L216.959 55L215.831 55ZM216.599 55L216.599 53.968L221.375 53.968L221.375 55L216.599 55ZM216.599 51.232L216.599 50.248L220.979 50.248L220.979 51.232L216.599 51.232ZM216.599 47.704L216.599 46.672L221.315 46.672L221.315 47.704L216.599 47.704ZM223.097 55L223.097 49.3L224.177 49.3L224.177 55L223.097 55ZM226.949 55L226.949 51.556C226.949 51.132 226.817 50.8 226.553 50.56C226.297 50.312 225.973 50.188 225.581 50.188C225.317 50.188 225.081 50.244 224.873 50.356C224.665 50.468 224.497 50.624 224.369 50.824C224.241 51.024 224.177 51.264 224.177 51.544L223.733 51.328C223.733 50.896 223.825 50.52 224.009 50.2C224.201 49.88 224.461 49.632 224.789 49.456C225.117 49.272 225.485 49.18 225.893 49.18C226.293 49.18 226.653 49.268 226.973 49.444C227.301 49.62 227.557 49.868 227.741 50.188C227.933 50.508 228.029 50.888 228.029 51.328L228.029 55L226.949 55ZM230.801 55L230.801 51.556C230.801 51.132 230.669 50.8 230.405 50.56C230.149 50.312 229.829 50.188 229.445 50.188C229.181 50.188 228.941 50.244 228.725 50.356C228.517 50.468 228.349 50.624 228.221 50.824C228.093 51.024 228.029 51.264 228.029 51.544L227.417 51.328C227.441 50.888 227.557 50.512 227.765 50.2C227.981 49.88 228.257 49.632 228.593 49.456C228.929 49.272 229.297 49.18 229.697 49.18C230.113 49.18 230.485 49.268 230.813 49.444C231.141 49.62 231.401 49.868 231.593 50.188C231.793 50.508 231.893 50.892 231.893 51.34L231.893 55L230.801 55ZM236.743 55.12C236.311 55.12 235.919 55.032 235.567 54.856C235.223 54.672 234.947 54.42 234.739 54.1C234.531 53.78 234.415 53.416 234.391 53.008L234.391 51.292C234.415 50.876 234.531 50.512 234.739 50.2C234.955 49.88 235.235 49.632 235.579 49.456C235.931 49.272 236.319 49.18 236.743 49.18C237.263 49.18 237.731 49.312 238.147 49.576C238.571 49.84 238.903 50.196 239.143 50.644C239.383 51.092 239.503 51.596 239.503 52.156C239.503 52.716 239.383 53.22 239.143 53.668C238.903 54.116 238.571 54.472 238.147 54.736C237.731 54.992 237.263 55.12 236.743 55.12ZM233.743 57.388L233.743 49.3L234.823 49.3L234.823 50.8L234.619 52.18L234.823 53.572L234.823 57.388L233.743 57.388ZM236.563 54.1C236.923 54.1 237.239 54.016 237.511 53.848C237.783 53.68 237.999 53.452 238.159 53.164C238.319 52.868 238.399 52.528 238.399 52.144C238.399 51.768 238.319 51.432 238.159 51.136C237.999 50.84 237.783 50.612 237.511 50.452C237.239 50.284 236.927 50.2 236.575 50.2C236.215 50.2 235.899 50.284 235.627 50.452C235.355 50.612 235.143 50.84 234.991 51.136C234.839 51.432 234.763 51.772 234.763 52.156C234.763 52.532 234.835 52.868 234.979 53.164C235.131 53.452 235.343 53.68 235.615 53.848C235.895 54.016 236.211 54.1 236.563 54.1ZM241.807 55L241.807 46.912L242.887 46.912L242.887 55L241.807 55ZM240.403 50.284L240.403 49.3L244.291 49.3L244.291 50.284L240.403 50.284ZM247.601 55.048L245.129 49.3L246.329 49.3L248.165 53.8L247.781 53.8L249.713 49.3L250.913 49.3L248.249 55.048L247.601 55.048ZM245.969 57.388L247.649 53.944L248.249 55.048L247.169 57.388L245.969 57.388Z" fill="white"/>
<defs>
<linearGradient id="paint0_linear_1543_1890" x1="134.382" y1="188.043" x2="134.382" y2="775.277" gradientUnits="userSpaceOnUse">
<stop stop-color="#2D2D2D"/>
<stop offset="0.296672" stop-color="#2D2D2D" stop-opacity="0"/>
</linearGradient>
<linearGradient id="paint1_linear_1543_1890" x1="103.417" y1="204.927" x2="261.455" y2="204.927" gradientUnits="userSpaceOnUse">
<stop stop-color="#2A2A2A"/>
<stop offset="1" stop-color="#0C0C0C"/>
</linearGradient>
<linearGradient id="paint2_linear_1543_1890" x1="134.558" y1="177.191" x2="134.558" y2="208.548" gradientUnits="userSpaceOnUse">
<stop stop-color="#0C0C0C"/>
<stop offset="1" stop-opacity="0.18"/>
</linearGradient>
<linearGradient id="paint3_linear_1543_1890" x1="134.578" y1="49.9548" x2="134.578" y2="188.512" gradientUnits="userSpaceOnUse">
<stop stop-color="#2D2D2D" stop-opacity="0.17"/>
<stop offset="1" stop-color="#2D2D2D"/>
</linearGradient>
<linearGradient id="paint4_linear_1543_1890" x1="134.714" y1="92.6172" x2="134.714" y2="155.144" gradientUnits="userSpaceOnUse">
<stop stop-color="#0C0C0C"/>
<stop offset="1" stop-color="#0C0C0C" stop-opacity="0.19"/>
</linearGradient>
</defs>
</svg>
