<svg width="445" height="445" viewBox="0 0 445 445" fill="none" xmlns="http://www.w3.org/2000/svg">
<circle cx="222.5" cy="222.5" r="222.5" fill="#171717"/>
<mask id="mask0_4515_2118" style="mask-type:alpha" maskUnits="userSpaceOnUse" x="64" y="104" width="290" height="238">
<path d="M165.379 333.526C159.456 329.881 155.697 324.414 154.558 322.135L115.259 308.466C111.082 302.581 101.248 287.621 95.3249 274.863C87.9209 258.916 64 212.213 64 196.266C64 183.508 116.398 140.451 142.597 120.517L287.831 104L353.329 150.133V303.341L300.93 314.162L224.612 290.811C221.194 296.696 214.132 309.606 213.221 314.162C212.309 318.718 206.006 327.451 202.969 331.248L191.578 341.5H177.909C176.2 340.361 171.302 337.171 165.379 333.526Z" fill="#D9D9D9"/>
</mask>
<g mask="url(#mask0_4515_2118)">
<path d="M181.924 320.188C189.226 320.188 195.129 314.242 195.129 306.983C195.129 299.681 189.182 293.778 181.924 293.778C174.665 293.778 168.719 299.725 168.719 306.983C168.719 314.242 174.665 320.188 181.924 320.188ZM181.924 302.217C184.547 302.217 186.646 304.36 186.646 306.94C186.646 309.563 184.504 311.662 181.924 311.662C179.344 311.662 177.201 309.519 177.201 306.94C177.201 304.36 179.344 302.217 181.924 302.217Z" fill="white"/>
<path d="M145.355 228.715C145.355 221.413 139.409 215.51 132.15 215.51C124.892 215.51 118.945 221.413 118.945 228.715C118.945 236.017 124.892 241.92 132.15 241.92C139.409 241.92 145.355 236.017 145.355 228.715ZM127.428 228.715C127.428 226.091 129.571 223.993 132.15 223.993C134.774 223.993 136.873 226.135 136.873 228.715C136.873 231.339 134.73 233.437 132.15 233.437C129.527 233.437 127.428 231.339 127.428 228.715Z" fill="white"/>
<path d="M239.807 155.912C247.109 155.912 253.012 149.966 253.012 142.707C253.012 135.405 247.065 129.502 239.807 129.502C232.504 129.502 226.602 135.449 226.602 142.707C226.602 149.966 232.548 155.912 239.807 155.912ZM239.807 137.985C242.43 137.985 244.529 140.127 244.529 142.707C244.529 145.287 242.43 147.43 239.807 147.43C237.183 147.43 235.084 145.287 235.084 142.707C235.084 140.127 237.227 137.985 239.807 137.985Z" fill="white"/>
<path d="M351.923 277.425L335.701 253.944C337.8 250.578 339.068 246.642 339.068 242.401C339.068 237.198 337.188 232.519 334.127 228.759C334.127 228.628 334.214 228.496 334.214 228.365V200.731C335.001 199.769 335.788 198.719 336.4 197.583C341.56 188.269 338.98 176.551 330.323 170.342L258.482 118.483C251.224 113.236 241.998 111.356 233.252 113.28C224.507 115.248 216.987 120.845 212.614 128.671C210.996 131.601 209.859 134.793 209.204 138.029C208.985 138.16 208.766 138.204 208.548 138.378L130.979 199.944C115.631 200.556 103.345 213.236 103.345 228.715C103.345 241.352 111.521 252.064 122.846 255.956L154.11 320.8C154.765 322.112 155.509 323.38 156.34 324.605L137.363 351.102H121.01C111.259 351.102 103.301 359.06 103.301 368.811V387.263C103.301 389.624 105.181 391.504 107.542 391.504H262.767C265.128 391.504 267.008 389.624 267.008 387.263V368.811C267.008 359.06 259.05 351.102 249.3 351.102H233.034L210.909 320.232C212.089 317.696 212.964 314.985 213.401 312.187C214.844 303.31 212.395 294.259 206.755 287.307L161.805 232.126L233.471 175.283L300.152 202.698V228.365C300.152 228.496 300.24 228.628 300.24 228.759C297.223 232.519 295.299 237.241 295.299 242.401C295.299 246.642 296.567 250.578 298.666 253.944L282.443 277.425C281.438 278.868 281.438 280.792 282.443 282.235L293.331 298.02C294.162 299.2 295.474 299.856 296.829 299.856C297.66 299.856 298.491 299.594 299.234 299.113C301.158 297.801 301.639 295.134 300.327 293.21L291.101 279.83L304.612 260.241C308.198 262.777 312.483 264.264 317.205 264.264C321.884 264.264 326.212 262.777 329.754 260.241L343.265 279.83L334.039 293.21C332.728 295.134 333.209 297.757 335.132 299.113C335.876 299.637 336.707 299.856 337.537 299.856C338.893 299.856 340.205 299.2 341.035 298.02L351.923 282.235C352.929 280.792 352.929 278.868 351.923 277.425ZM220.047 132.869C223.239 127.141 228.705 123.031 235.133 121.632C236.794 121.282 238.456 121.063 240.117 121.063C244.883 121.063 249.606 122.55 253.541 125.392L325.425 177.207C330.585 180.923 332.115 187.919 329.055 193.429C325.994 198.982 319.216 201.343 313.357 198.938L231.416 165.226C225.338 162.733 220.66 157.749 218.473 151.584C216.243 145.418 216.855 138.597 220.047 132.869ZM209.072 148.829C209.378 150.709 209.772 152.545 210.428 154.382C212.964 161.64 218.08 167.674 224.726 171.391L160.275 222.506C158.176 212.93 151.311 205.191 142.304 201.78L209.072 148.829ZM111.783 228.715C111.783 217.478 120.922 208.383 132.116 208.383C143.353 208.383 152.448 217.521 152.448 228.715C152.448 239.952 143.309 249.047 132.116 249.047C120.922 249.047 111.783 239.952 111.783 228.715ZM258.526 368.811V383.022H111.783V368.811C111.783 363.739 115.937 359.585 121.01 359.585H249.3C254.372 359.585 258.526 363.695 258.526 368.811ZM222.627 351.102H147.726L162.024 331.12C165.391 334.006 169.37 336.148 173.742 337.372C176.584 338.159 179.47 338.553 182.356 338.553C188.259 338.553 194.162 336.891 199.234 333.656C201.77 332.038 204 330.07 205.924 327.84L222.627 351.102ZM205.05 310.787C204 317.259 200.24 322.987 194.73 326.485C189.221 329.983 182.444 330.988 176.103 329.196C169.807 327.403 164.56 322.987 161.718 317.084L132.99 257.486C144.097 257.18 153.672 250.534 158.176 241.046L200.196 292.598C204.306 297.714 206.099 304.316 205.05 310.787ZM310.078 206.765C312.658 207.814 315.369 208.339 318.036 208.339C320.703 208.339 323.283 207.814 325.731 206.852V222.244C323.108 221.107 320.222 220.495 317.161 220.495C314.144 220.495 311.215 221.107 308.591 222.244V206.153L310.078 206.765ZM303.781 242.401C303.781 235.011 309.815 228.977 317.205 228.977C324.595 228.977 330.629 235.011 330.629 242.401C330.629 249.791 324.638 255.825 317.205 255.825C309.815 255.825 303.781 249.791 303.781 242.401Z" fill="white"/>
</g>
</svg>
