<svg id="Group_62" data-name="Group 62" xmlns="http://www.w3.org/2000/svg" width="20.391" height="15.5" viewBox="0 0 20.391 15.5">
  <path id="Path_215" data-name="Path 215" d="M328.28,1265a6.412,6.412,0,0,0-6.414,6.41v.17a1.88,1.88,0,0,0,.78,3.59h16.635a1.88,1.88,0,0,0,.779-3.59v-.17a6.412,6.412,0,0,0-6.414-6.41Zm10.758,6.41a5.4,5.4,0,0,0-5.392-5.39H328.28a5.394,5.394,0,0,0-5.391,5.39Zm-16.392,1.03h16.635a.855.855,0,0,1,0,1.71H322.646a.855.855,0,1,1,0-1.71Z" transform="translate(-320.768 -1265)" fill="rgba(30,30,30,0.5)" fill-rule="evenodd"/>
  <path id="Path_216" data-name="Path 216" d="M322.377,1276.24h0a3.756,3.756,0,0,0,3.756,3.76h9.66a3.756,3.756,0,0,0,3.756-3.76h0" transform="translate(-320.768 -1265)" fill="none" stroke="#8e8e8e" stroke-width="1"/>
</svg>
