<svg width="16" height="16" viewBox="0 0 16 16" fill="none" xmlns="http://www.w3.org/2000/svg">
<path d="M10.3327 7.33431C10.3327 8.62297 9.28801 9.66764 7.99935 9.66764C6.71068 9.66764 5.66602 8.62297 5.66602 7.33431C5.66602 6.04565 6.71068 5.00098 7.99935 5.00098C9.28801 5.00098 10.3327 6.04565 10.3327 7.33431Z" stroke="#009AF1"/>
<path d="M8 1.33398C11.247 1.33398 14 4.02264 14 7.2845C14 10.5983 11.2022 12.9238 8.618 14.5051C8.42967 14.6114 8.2167 14.6673 8 14.6673C7.7833 14.6673 7.57033 14.6114 7.382 14.5051C4.8026 12.9084 2 10.6098 2 7.2845C2 4.02263 4.75296 1.33398 8 1.33398Z" stroke="#009AF1"/>
</svg>
