<svg width="204" height="174" viewBox="0 0 204 174" fill="none" xmlns="http://www.w3.org/2000/svg">
<path d="M203.2 165.612H0V173.16H203.2V165.612Z" fill="#F4F4F4"/>
<path d="M203.2 104.35H0V111.898H203.2V104.35Z" fill="#F4F4F4"/>
<path d="M203.2 43.0857H0V50.6339H203.2V43.0857Z" fill="#F4F4F4"/>
<path d="M93.6621 73.3747V71.0447H76.5985V73.3747C75.7694 73.567 75.0299 74.0344 74.5004 74.7007C73.9708 75.3671 73.6826 76.1931 73.6825 77.0442V100.847C73.6825 101.849 74.0809 102.811 74.79 103.52C75.4991 104.229 76.4608 104.628 77.4636 104.628H92.8111C93.8139 104.628 94.7756 104.229 95.4847 103.52C96.1937 102.811 96.5921 101.849 96.5921 100.847V77.0442C96.5913 76.1911 96.301 75.3637 95.7688 74.6971C95.2365 74.0305 94.4938 73.5643 93.6621 73.3747Z" fill="#F4F4F4"/>
<path d="M76.6827 69.05H93.5789C94.071 69.05 94.543 69.2455 94.891 69.5935C95.239 69.9415 95.4345 70.4135 95.4345 70.9056V72.0078H74.8271V70.9056C74.8271 70.4135 75.0226 69.9415 75.3706 69.5935C75.7186 69.2455 76.1906 69.05 76.6827 69.05Z" fill="#F4F4F4"/>
<path d="M92.4608 80.1H77.811V87.8296H92.4608V80.1Z" fill="#F4F4F4"/>
<path d="M126.449 5.16124V2.37079H105.632V5.16124C104.675 5.21808 103.775 5.63802 103.116 6.33544C102.458 7.03285 102.09 7.95521 102.088 8.91439V39.6093C102.088 40.6121 102.487 41.5738 103.196 42.2829C103.905 42.992 104.867 43.3904 105.869 43.3904H126.212C127.215 43.3904 128.176 42.992 128.885 42.2829C129.595 41.5738 129.993 40.6121 129.993 39.6093V8.91439C129.991 7.95521 129.623 7.03285 128.965 6.33544C128.306 5.63802 127.407 5.21808 126.449 5.16124Z" fill="#F4F4F4"/>
<path d="M105.34 5.24533e-05H126.728C127.221 5.24533e-05 127.693 0.195559 128.041 0.543561C128.389 0.891562 128.584 1.36355 128.584 1.8557V3.59973H103.47V1.8557C103.47 1.61084 103.518 1.3684 103.613 1.14235C103.707 0.916296 103.845 0.711108 104.018 0.538611C104.192 0.366115 104.398 0.229715 104.625 0.137284C104.852 0.0448537 105.095 -0.00178864 105.34 5.24533e-05Z" fill="#F4F4F4"/>
<path d="M123.366 14.2166H108.716V21.9461H123.366V14.2166Z" fill="#F4F4F4"/>
<path d="M110.405 37.8951C110.145 38.0437 109.92 38.2444 109.742 38.4846C109.565 38.7247 109.439 38.999 109.372 39.2903C109.306 39.4732 109.177 39.6268 109.009 39.7239C108.84 39.8209 108.643 39.8551 108.451 39.8205C108.329 39.8013 108.212 39.7552 108.11 39.6855C108.008 39.6158 107.922 39.5243 107.859 39.4175C107.797 39.3108 107.758 39.1914 107.747 39.0681C107.736 38.9448 107.753 38.8205 107.796 38.7043C107.941 38.1837 108.2 37.702 108.555 37.2941C108.91 36.8863 109.351 36.5625 109.846 36.3464C110.799 35.7354 111.631 34.9551 112.302 34.0443C111.458 33.9157 110.594 34.0266 109.81 34.3645C109.026 34.7025 108.352 35.2538 107.865 35.9557C106.275 37.8532 105.996 40.2391 107.251 41.2855C108.507 42.3319 110.795 41.6343 112.386 39.7368C112.962 39.1471 113.373 38.4169 113.578 37.6188C113.784 36.8208 113.777 35.9828 113.558 35.1883C112.704 36.298 111.631 37.2195 110.405 37.8951Z" fill="#F4F4F4"/>
<path d="M116.306 31.8402C116.044 31.7151 115.76 31.6433 115.47 31.6289C115.18 31.6145 114.891 31.6579 114.618 31.7564C114.429 31.8065 114.228 31.7877 114.052 31.7034C113.875 31.619 113.735 31.4746 113.655 31.296C113.604 31.1843 113.578 31.0629 113.578 30.9402C113.579 30.8174 113.606 30.6963 113.658 30.5849C113.709 30.4736 113.784 30.3748 113.878 30.2952C113.971 30.2157 114.081 30.1573 114.199 30.124C114.713 29.9521 115.257 29.8955 115.795 29.9582C116.333 30.0209 116.85 30.2014 117.31 30.4868C118.355 30.9256 119.471 31.1714 120.603 31.2123C120.233 30.4413 119.654 29.7901 118.931 29.3336C118.207 28.877 117.37 28.6336 116.515 28.6311C114.046 28.394 111.911 29.5101 111.757 31.1286C111.604 32.7471 113.488 34.2539 115.943 34.4911C116.754 34.6345 117.589 34.5617 118.363 34.2801C119.137 33.9984 119.823 33.5178 120.352 32.8866C118.945 32.8278 117.565 32.4711 116.306 31.8402Z" fill="#F4F4F4"/>
<path d="M126.043 34.727C126.142 34.4507 126.183 34.1571 126.164 33.8643C126.145 33.5716 126.066 33.2859 125.932 33.0248C125.866 32.8413 125.866 32.6406 125.932 32.4572C125.998 32.2738 126.127 32.1192 126.295 32.0202C126.4 31.957 126.519 31.9176 126.642 31.9047C126.764 31.8918 126.888 31.9057 127.005 31.9456C127.122 31.9854 127.229 32.0501 127.318 32.1353C127.407 32.2205 127.477 32.324 127.522 32.4388C127.75 32.9284 127.867 33.4617 127.867 34.0015C127.867 34.5412 127.75 35.0745 127.522 35.5641C127.2 36.6491 127.077 37.7837 127.16 38.9127C127.885 38.4615 128.468 37.8152 128.843 37.0478C129.218 36.2804 129.37 35.4229 129.28 34.5735C129.28 32.09 127.885 30.1088 126.281 30.1227C124.676 30.1367 123.365 32.1737 123.392 34.6433C123.345 35.4614 123.512 36.2778 123.877 37.0117C124.241 37.7457 124.791 38.372 125.471 38.8289C125.367 37.4364 125.562 36.0377 126.043 34.727Z" fill="#F4F4F4"/>
<path d="M108.591 27.4449C108.391 27.6574 108.237 27.9076 108.136 28.1808C108.036 28.454 107.991 28.7446 108.005 29.0355C107.99 29.2294 107.908 29.412 107.773 29.552C107.638 29.6921 107.458 29.7807 107.265 29.8028C107.142 29.8195 107.018 29.8089 106.9 29.7717C106.782 29.7344 106.674 29.6715 106.583 29.5875C106.492 29.5034 106.421 29.4003 106.375 29.2856C106.329 29.1708 106.309 29.0473 106.316 28.9239C106.319 28.3927 106.436 27.8683 106.66 27.3866C106.884 26.905 107.209 26.4775 107.614 26.1334C108.35 25.273 108.923 24.2846 109.302 23.2174C108.456 23.3363 107.66 23.6912 107.006 24.2415C106.352 24.7917 105.866 25.5151 105.605 26.3287C104.614 28.603 105.033 30.9748 106.526 31.6166C108.018 32.2584 110.028 30.933 111.004 28.6588C111.394 27.9294 111.582 27.1095 111.551 26.2832C111.519 25.4569 111.268 24.654 110.823 23.9569C110.337 25.2658 109.575 26.4552 108.591 27.4449Z" fill="#F4F4F4"/>
<path d="M121.302 25.9381C121.47 26.4404 122.111 26.7752 122.697 26.9706C122.881 27.0394 123.035 27.1708 123.132 27.3417C123.229 27.5126 123.263 27.7121 123.228 27.9054C123.205 28.027 123.156 28.1421 123.084 28.2428C123.012 28.3435 122.919 28.4273 122.811 28.4884C122.704 28.5495 122.584 28.5864 122.461 28.5966C122.338 28.6067 122.214 28.5899 122.098 28.5472C121.58 28.394 121.103 28.1299 120.698 27.7733C120.293 27.4167 119.971 26.9761 119.754 26.4822C119.146 25.5275 118.371 24.6908 117.465 24.0127C117.331 24.8565 117.436 25.7211 117.769 26.508C118.102 27.2948 118.65 27.9724 119.349 28.4634C121.246 30.068 123.632 30.347 124.679 29.1052C125.725 27.8635 125.055 25.5614 123.158 23.9569C122.57 23.3787 121.84 22.9649 121.042 22.7568C120.244 22.5487 119.405 22.5536 118.609 22.7709C119.718 23.6274 120.635 24.7062 121.302 25.9381Z" fill="#F4F4F4"/>
<path d="M118.566 38.9957C118.277 38.9794 117.986 39.0216 117.713 39.1199C117.44 39.2182 117.189 39.3705 116.976 39.5678C116.825 39.6938 116.635 39.7628 116.439 39.7628C116.242 39.7628 116.052 39.6938 115.902 39.5678C115.812 39.4829 115.741 39.3795 115.695 39.2646C115.649 39.1498 115.629 39.0263 115.636 38.9028C115.642 38.7793 115.676 38.6587 115.734 38.5495C115.792 38.4402 115.873 38.3449 115.971 38.2702C116.378 37.9168 116.858 37.6573 117.376 37.5102C117.895 37.3631 118.439 37.332 118.971 37.4191C120.104 37.4337 121.229 37.2397 122.292 36.8471C121.658 36.2733 120.875 35.8903 120.034 35.7422C119.192 35.5941 118.325 35.6869 117.534 36.0099C115.162 36.7355 113.613 38.5771 114.088 40.1956C114.562 41.8141 116.878 42.428 119.236 41.7025C120.044 41.5298 120.791 41.1456 121.402 40.5891C122.012 40.0325 122.464 39.3237 122.71 38.5353C121.377 38.9793 119.965 39.1362 118.566 38.9957Z" fill="#F4F4F4"/>
<path d="M39.8743 127.413V124.693H19.0576V127.413C18.1001 127.47 17.2003 127.89 16.5418 128.588C15.8833 129.285 15.5156 130.207 15.5137 131.167V161.861C15.5119 162.357 15.6079 162.849 15.7964 163.307C15.9849 163.766 16.2621 164.183 16.6121 164.534C16.9621 164.885 17.378 165.164 17.836 165.354C18.2939 165.545 18.7849 165.643 19.2808 165.643H39.6371C40.6399 165.643 41.6016 165.244 42.3107 164.535C43.0198 163.826 43.4182 162.864 43.4182 161.861V131.167C43.4163 130.207 43.0486 129.285 42.3901 128.588C41.7316 127.89 40.8318 127.47 39.8743 127.413Z" fill="#F4F4F4"/>
<path d="M18.766 122.251H40.2245C40.7167 122.251 41.1887 122.447 41.5367 122.795C41.8847 123.143 42.0802 123.615 42.0802 124.107V125.795H16.9661V124.051C16.9802 123.578 17.1743 123.128 17.5089 122.794C17.8434 122.459 18.2931 122.265 18.766 122.251Z" fill="#F4F4F4"/>
<path d="M36.7909 136.454H22.141V144.184H36.7909V136.454Z" fill="#F4F4F4"/>
<path d="M23.8298 160.087C23.3276 160.254 22.9927 160.896 22.7974 161.482C22.7286 161.666 22.5972 161.82 22.4263 161.917C22.2554 162.014 22.0558 162.048 21.8626 162.012C21.7415 161.991 21.6265 161.944 21.5258 161.874C21.4251 161.803 21.3411 161.711 21.2798 161.605C21.2186 161.498 21.1816 161.38 21.1714 161.257C21.1611 161.135 21.178 161.011 21.2208 160.896C21.3662 160.376 21.6257 159.894 21.9805 159.486C22.3352 159.078 22.7763 158.754 23.2718 158.538C24.224 157.927 25.0562 157.147 25.7273 156.236C24.8827 156.103 24.0176 156.211 23.2322 156.549C22.4469 156.888 21.7736 157.442 21.2905 158.148C19.7 160.045 19.421 162.431 20.6627 163.477C21.9045 164.524 24.2205 163.826 25.8111 161.929C26.3892 161.338 26.8008 160.605 27.0042 159.803C27.2076 159.002 27.1955 158.161 26.9691 157.366C26.1274 158.485 25.0573 159.413 23.8298 160.087Z" fill="#F4F4F4"/>
<path d="M29.7312 154.088C29.4706 153.96 29.1862 153.886 28.8958 153.871C28.6054 153.857 28.3151 153.902 28.043 154.005C27.8521 154.053 27.6504 154.033 27.4723 153.949C27.2942 153.865 27.1508 153.722 27.0664 153.544C27.0157 153.432 26.9901 153.309 26.9914 153.186C26.9927 153.062 27.0209 152.941 27.074 152.829C27.1271 152.718 27.2039 152.619 27.2989 152.54C27.394 152.461 27.505 152.404 27.6244 152.372C28.138 152.201 28.6828 152.145 29.2204 152.208C29.758 152.271 30.2754 152.451 30.7358 152.735C31.783 153.166 32.8972 153.412 34.0285 153.461C33.6537 152.691 33.0709 152.041 32.346 151.585C31.6211 151.128 30.783 150.884 29.9265 150.879C27.471 150.642 25.3363 151.758 25.1828 153.377C25.0293 154.995 26.8989 156.502 29.3685 156.739C30.1828 156.879 31.0197 156.804 31.7957 156.52C32.5717 156.236 33.2597 155.754 33.7913 155.121C32.3798 155.07 30.9955 154.718 29.7312 154.088Z" fill="#F4F4F4"/>
<path d="M39.4564 156.962C39.5568 156.688 39.5999 156.398 39.5831 156.107C39.5663 155.817 39.4899 155.533 39.3587 155.273C39.2927 155.09 39.2928 154.889 39.3591 154.706C39.4253 154.522 39.5535 154.368 39.7215 154.269C39.8258 154.203 39.9434 154.162 40.0658 154.147C40.1883 154.133 40.3123 154.147 40.4288 154.187C40.5453 154.227 40.6513 154.293 40.739 154.38C40.8266 154.466 40.8937 154.571 40.9353 154.687C41.1664 155.176 41.2861 155.71 41.2861 156.25C41.2861 156.79 41.1664 157.324 40.9353 157.813C40.6115 158.897 40.4885 160.032 40.5726 161.161C41.2978 160.71 41.8814 160.064 42.2564 159.296C42.6315 158.529 42.7829 157.671 42.6933 156.822C42.6933 154.339 41.2981 152.343 39.6936 152.371C38.0891 152.399 36.7636 154.422 36.8055 156.892C36.7542 157.711 36.9193 158.528 37.2842 159.263C37.6491 159.998 38.201 160.624 38.8844 161.077C38.7844 159.681 38.9793 158.278 39.4564 156.962Z" fill="#F4F4F4"/>
<path d="M22.003 149.693C21.8012 149.904 21.645 150.154 21.5441 150.427C21.4433 150.701 21.4 150.993 21.4169 151.284C21.3989 151.479 21.3141 151.662 21.1768 151.802C21.0395 151.941 20.8583 152.03 20.6636 152.051C20.5416 152.068 20.4174 152.058 20.3001 152.02C20.1827 151.983 20.0752 151.92 19.9855 151.836C19.8958 151.751 19.8262 151.648 19.7818 151.533C19.7373 151.418 19.7192 151.295 19.7287 151.172C19.7284 150.642 19.8429 150.118 20.0645 149.636C20.2861 149.154 20.6095 148.726 21.0124 148.382C21.7595 147.526 22.3371 146.537 22.7145 145.466C21.8674 145.587 21.0709 145.942 20.4151 146.492C19.7594 147.042 19.2703 147.764 19.0032 148.577C18.0266 150.851 18.4451 153.209 19.938 153.865C21.4309 154.521 23.4401 153.181 24.4167 150.907C24.7994 150.176 24.984 149.357 24.9522 148.532C24.9204 147.707 24.6732 146.905 24.2353 146.205C23.7412 147.51 22.9809 148.698 22.003 149.693Z" fill="#F4F4F4"/>
<path d="M34.7139 148.186C34.8625 148.446 35.0632 148.671 35.3034 148.849C35.5435 149.026 35.8178 149.152 36.1091 149.219C36.2915 149.29 36.4438 149.422 36.5404 149.592C36.637 149.762 36.6719 149.961 36.6393 150.154C36.6165 150.275 36.5674 150.39 36.4955 150.491C36.4237 150.592 36.3307 150.676 36.2231 150.737C36.1155 150.798 35.9959 150.835 35.8726 150.845C35.7493 150.855 35.6253 150.838 35.5091 150.795C34.9918 150.642 34.5141 150.378 34.1093 150.022C33.7045 149.665 33.3823 149.224 33.1652 148.731C32.558 147.776 31.7827 146.939 30.877 146.261C30.7427 147.105 30.848 147.969 31.181 148.756C31.5141 149.543 32.0613 150.221 32.7606 150.712C34.6581 152.302 37.0439 152.595 38.0903 151.354C39.1367 150.112 38.467 147.81 36.5695 146.205C35.9813 145.627 35.2517 145.213 34.4536 145.005C33.6555 144.797 32.8167 144.802 32.0211 145.019C33.1308 145.874 34.0483 146.954 34.7139 148.186Z" fill="#F4F4F4"/>
<path d="M31.9923 161.246C31.7001 161.228 31.4072 161.269 31.1313 161.367C30.8555 161.466 30.6026 161.619 30.3878 161.818C30.2406 161.945 30.0524 162.016 29.8576 162.016C29.6628 162.016 29.4746 161.945 29.3274 161.818C29.2354 161.736 29.163 161.634 29.1156 161.52C29.0683 161.406 29.0471 161.283 29.0538 161.159C29.0605 161.036 29.0949 160.916 29.1543 160.808C29.2138 160.699 29.2967 160.606 29.3972 160.534C29.804 160.181 30.2837 159.921 30.8021 159.774C31.3206 159.627 31.8651 159.596 32.3969 159.683C33.5294 159.697 34.6548 159.503 35.7175 159.111C35.081 158.538 34.2959 158.155 33.452 158.007C32.6081 157.859 31.7396 157.951 30.9459 158.274C28.574 158.999 27.0393 160.841 27.5136 162.46C27.988 164.078 30.304 164.692 32.662 163.98C33.4669 163.801 34.211 163.415 34.8204 162.859C35.4298 162.303 35.8834 161.598 36.1361 160.813C34.8004 161.246 33.3886 161.394 31.9923 161.246Z" fill="#F4F4F4"/>
<path d="M79.5829 99.7317C79.1922 99.8573 78.9411 100.36 78.7877 100.778C78.7368 100.922 78.6349 101.043 78.5014 101.118C78.3678 101.192 78.2116 101.215 78.0621 101.183C77.9684 101.166 77.8795 101.129 77.8016 101.074C77.7236 101.02 77.6584 100.949 77.6106 100.867C77.5628 100.784 77.5335 100.692 77.5248 100.598C77.516 100.503 77.528 100.407 77.5598 100.318C77.6776 99.9164 77.8807 99.5454 78.1552 99.2299C78.4298 98.9144 78.7692 98.662 79.1504 98.49C79.8926 98.0182 80.5408 97.4126 81.0618 96.7041C80.4053 96.6067 79.7347 96.6949 79.1257 96.9588C78.5167 97.2226 77.9936 97.6515 77.6156 98.197C76.3878 99.662 76.2204 101.518 77.1413 102.383C78.0621 103.248 79.9317 102.648 81.1177 101.169C81.5668 100.716 81.8875 100.151 82.0469 99.5335C82.2062 98.9157 82.1985 98.2667 82.0245 97.6528C81.3683 98.5121 80.5358 99.2209 79.5829 99.7317Z" fill="#F4F4F4"/>
<path d="M84.1729 95.0979C83.9628 95.0107 83.7376 94.9659 83.5101 94.9659C83.2827 94.9659 83.0575 95.0107 82.8474 95.0979C82.7011 95.1337 82.547 95.1171 82.4118 95.0508C82.2766 94.9844 82.169 94.8727 82.1079 94.7351C82.0655 94.6483 82.0433 94.5531 82.0429 94.4565C82.0424 94.3599 82.0638 94.2645 82.1054 94.1773C82.147 94.0901 82.2077 94.0135 82.283 93.953C82.3583 93.8926 82.4463 93.8499 82.5404 93.8282C82.9358 93.6919 83.3567 93.6462 83.7721 93.6945C84.1875 93.7429 84.5867 93.8839 84.9402 94.1072C85.751 94.4448 86.6158 94.6339 87.4935 94.6653C87.2044 94.0703 86.7546 93.5681 86.1948 93.2155C85.6351 92.8629 84.9878 92.674 84.3263 92.6702C82.4149 92.4888 80.7546 93.3538 80.6429 94.6095C80.5313 95.8652 81.9684 97.0372 83.8938 97.2186C84.5236 97.3263 85.1707 97.267 85.7705 97.0467C86.3702 96.8264 86.9018 96.4527 87.3121 95.9629C86.2145 95.9109 85.1422 95.6154 84.1729 95.0979Z" fill="#F4F4F4"/>
<path d="M91.7073 97.3162C91.7867 97.1041 91.8203 96.8775 91.8058 96.6515C91.7914 96.4254 91.7293 96.205 91.6236 96.0047C91.5719 95.8602 91.5715 95.7024 91.6223 95.5576C91.6731 95.4129 91.7721 95.29 91.9026 95.2094C91.9852 95.1605 92.0774 95.1303 92.1729 95.1209C92.2684 95.1115 92.3648 95.1232 92.4553 95.1551C92.5457 95.1871 92.6281 95.2385 92.6965 95.3057C92.7649 95.3729 92.8178 95.4544 92.8514 95.5443C93.0321 95.9209 93.1258 96.3334 93.1258 96.7511C93.1258 97.1689 93.0321 97.5813 92.8514 97.958C92.5961 98.8026 92.5015 99.6876 92.5723 100.567C93.1332 100.213 93.5844 99.7091 93.8752 99.1128C94.166 98.5164 94.285 97.8508 94.2187 97.1906C94.2187 95.2792 93.1444 93.7305 91.8887 93.7444C90.633 93.7584 89.6284 95.335 89.6424 97.2604C89.6016 97.8988 89.7297 98.5367 90.0138 99.1098C90.2979 99.683 90.728 100.171 91.2608 100.525C91.172 99.4357 91.3244 98.34 91.7073 97.3162Z" fill="#F4F4F4"/>
<path d="M78.1749 91.6663C78.0195 91.8295 77.8986 92.0223 77.8195 92.2333C77.7404 92.4443 77.7047 92.669 77.7145 92.8941C77.7059 93.0472 77.644 93.1924 77.5395 93.3045C77.435 93.4167 77.2945 93.4887 77.1424 93.508C77.047 93.5185 76.9505 93.5078 76.8596 93.4769C76.7687 93.4459 76.6858 93.3954 76.6166 93.3288C76.5474 93.2623 76.4936 93.1814 76.4591 93.0918C76.4246 93.0022 76.4102 92.9062 76.4169 92.8104C76.4062 92.3922 76.4897 91.977 76.6612 91.5954C76.8327 91.2138 77.0877 90.8756 77.4075 90.606C78.0116 89.953 78.4851 89.1905 78.8028 88.3596C78.1451 88.445 77.5255 88.7162 77.0164 89.1412C76.5073 89.5662 76.13 90.1276 75.9286 90.7594C75.1612 92.5174 75.4821 94.3591 76.6402 94.8614C77.7982 95.3637 79.3609 94.3312 80.1143 92.5593C80.4145 91.9965 80.5598 91.364 80.5353 90.7266C80.5108 90.0892 80.3173 89.4698 79.9747 88.9317C79.5817 89.9637 78.9674 90.8971 78.1749 91.6663Z" fill="#F4F4F4"/>
<path d="M88.0234 90.4939C88.1344 90.6923 88.2843 90.8663 88.4641 91.0053C88.6439 91.1444 88.8499 91.2457 89.0699 91.3032C89.2124 91.3565 89.3313 91.4588 89.4054 91.5917C89.4795 91.7245 89.5039 91.8794 89.4744 92.0287C89.4606 92.1236 89.4253 92.2141 89.3711 92.2932C89.3169 92.3723 89.2453 92.438 89.1618 92.4851C89.0783 92.5323 88.985 92.5597 88.8893 92.5652C88.7935 92.5707 88.6978 92.5542 88.6094 92.517C88.2074 92.4045 87.8357 92.2031 87.5218 91.9279C87.2079 91.6526 86.9597 91.3104 86.7956 90.9265C86.3268 90.1824 85.7263 89.5299 85.0237 89.0011C84.9206 89.6571 85.0033 90.3288 85.2622 90.9403C85.5211 91.5518 85.9459 92.0787 86.4887 92.4612C87.8839 93.703 89.7954 93.8564 90.6744 92.9635C91.5534 92.0706 90.9534 90.173 89.4884 88.9732C89.033 88.5228 88.4668 88.2005 87.8471 88.0388C87.2273 87.8772 86.5759 87.8818 85.9585 88.0523C86.8115 88.7112 87.5153 89.5434 88.0234 90.4939Z" fill="#F4F4F4"/>
<path d="M85.9185 100.679C85.692 100.666 85.4652 100.698 85.2518 100.775C85.0383 100.852 84.8426 100.971 84.6767 101.126C84.5639 101.228 84.4172 101.284 84.2651 101.284C84.1131 101.284 83.9664 101.228 83.8535 101.126C83.7805 101.066 83.7216 100.99 83.6813 100.904C83.6409 100.819 83.6199 100.725 83.6199 100.63C83.6199 100.536 83.6409 100.442 83.6813 100.357C83.7216 100.271 83.7805 100.195 83.8535 100.135C84.1677 99.8579 84.5404 99.655 84.9438 99.5415C85.3471 99.4279 85.7709 99.4067 86.1836 99.4794C87.0645 99.4806 87.9386 99.3247 88.7647 99.019C88.2687 98.5795 87.6601 98.2867 87.0071 98.1734C86.3542 98.06 85.6826 98.1306 85.0674 98.3772C83.2257 98.9353 82.0398 100.372 82.4025 101.572C82.7653 102.772 84.5651 103.302 86.3928 102.744C87.019 102.61 87.5983 102.312 88.0715 101.881C88.5446 101.449 88.8946 100.9 89.0856 100.289C88.071 100.648 86.9901 100.782 85.9185 100.679Z" fill="#F4F4F4"/>
<path d="M46.1256 5.16124V2.37079H30.8898V5.16124C29.9322 5.21808 29.0325 5.63802 28.374 6.33544C27.7155 7.03285 27.3477 7.95521 27.3459 8.91439V39.6093C27.344 40.1052 27.4401 40.5966 27.6286 41.0552C27.8171 41.5139 28.0943 41.9308 28.4443 42.2821C28.7943 42.6334 29.2102 42.9121 29.6682 43.1023C30.1261 43.2925 30.6171 43.3904 31.113 43.3904H45.8884C46.8912 43.3904 47.8529 42.992 48.562 42.2829C49.2711 41.5738 49.6695 40.6121 49.6695 39.6093V8.91439C49.6676 7.95521 49.2999 7.03285 48.6414 6.33544C47.9829 5.63802 47.0831 5.21808 46.1256 5.16124Z" fill="#F4F4F4"/>
<path d="M30.5967 0H46.4186C46.9107 0 47.3827 0.195507 47.7307 0.543508C48.0787 0.89151 48.2742 1.3635 48.2742 1.85565V3.59968H28.7411V1.85565C28.7411 1.61196 28.7891 1.37067 28.8823 1.14553C28.9756 0.920393 29.1123 0.715821 29.2846 0.543508C29.4569 0.371196 29.6615 0.23451 29.8866 0.141255C30.1117 0.0480003 30.3531 0 30.5967 0Z" fill="#F4F4F4"/>
<path d="M35.3268 35.6753C35.0693 35.8259 34.8449 36.0272 34.6675 36.267C34.49 36.5069 34.3631 36.7802 34.2944 37.0706C34.2255 37.2546 34.0942 37.4085 33.9233 37.5054C33.7524 37.6024 33.5528 37.6361 33.3595 37.6007C33.2384 37.5797 33.1235 37.5323 33.0228 37.4619C32.9221 37.3915 32.8381 37.2997 32.7768 37.1932C32.7156 37.0866 32.6785 36.9679 32.6683 36.8455C32.6581 36.723 32.675 36.5998 32.7177 36.4846C32.8632 35.9639 33.1227 35.4822 33.4774 35.0744C33.8322 34.6665 34.2733 34.3428 34.7687 34.1266C35.7243 33.52 36.5574 32.739 37.2243 31.8245C36.3799 31.6942 35.5159 31.8044 34.7312 32.1425C33.9465 32.4805 33.2729 33.0328 32.7875 33.736C31.197 35.6474 30.9179 38.0332 32.1597 39.0657C33.4014 40.0982 35.7175 39.4145 37.308 37.517C37.8862 36.9291 38.298 36.1983 38.5015 35.3992C38.7049 34.6002 38.6927 33.7614 38.4661 32.9686C37.6204 34.0804 36.551 35.0025 35.3268 35.6753Z" fill="#F4F4F4"/>
<path d="M41.2282 29.6772C40.9616 29.5625 40.6744 29.5033 40.3841 29.5033C40.0938 29.5033 39.8066 29.5625 39.54 29.6772C39.3475 29.7216 39.1456 29.6987 38.968 29.6124C38.7903 29.5261 38.6475 29.3816 38.5633 29.2029C38.5126 29.0902 38.4871 28.9679 38.4884 28.8444C38.4897 28.7209 38.5179 28.5992 38.571 28.4876C38.6241 28.3761 38.7008 28.2775 38.7959 28.1986C38.8909 28.1198 39.002 28.0625 39.1214 28.0309C39.635 27.8599 40.1798 27.8038 40.7174 27.8665C41.255 27.9292 41.7723 28.1091 42.2328 28.3936C43.2753 28.8392 44.3922 29.0853 45.5255 29.1191C45.1506 28.3491 44.5678 27.6992 43.8429 27.2431C43.118 26.787 42.28 26.5427 41.4235 26.538C38.9679 26.3008 36.8332 27.4309 36.6798 29.0494C36.5263 30.6679 38.3959 32.1607 40.8654 32.3979C41.6786 32.5411 42.5151 32.4682 43.2913 32.1866C44.0674 31.9051 44.7561 31.4246 45.2883 30.7934C43.8705 30.7171 42.4858 30.3364 41.2282 29.6772Z" fill="#F4F4F4"/>
<path d="M33.4999 25.3381C33.2981 25.5487 33.142 25.7986 33.0411 26.0723C32.9403 26.346 32.897 26.6375 32.9139 26.9287C32.8964 27.1253 32.812 27.3101 32.675 27.4522C32.5379 27.5944 32.3564 27.6853 32.1605 27.71C32.0378 27.7248 31.9134 27.7122 31.7961 27.6731C31.6789 27.6341 31.5717 27.5696 31.4823 27.4842C31.393 27.3988 31.3236 27.2947 31.2792 27.1794C31.2348 27.0641 31.2166 26.9403 31.2257 26.8171C31.2252 26.2854 31.3411 25.7601 31.5653 25.278C31.7894 24.796 32.1164 24.3688 32.5233 24.0266C33.2571 23.1694 33.8291 22.1861 34.2115 21.1246C33.3649 21.2414 32.5681 21.5937 31.9119 22.1413C31.2557 22.689 30.7666 23.4099 30.5002 24.2219C29.5235 26.4962 29.9421 28.868 31.435 29.5098C32.9279 30.1517 34.937 28.8262 35.9137 26.552C36.2965 25.8231 36.4813 25.0065 36.4494 24.1838C36.4176 23.3611 36.1703 22.5612 35.7323 21.864C35.2382 23.1649 34.4779 24.3482 33.4999 25.3381Z" fill="#F4F4F4"/>
<path d="M43.4893 36.8487C43.197 36.8305 42.9041 36.8718 42.6283 36.9701C42.3525 37.0684 42.0996 37.2218 41.8848 37.4208C41.7352 37.5432 41.5479 37.61 41.3546 37.61C41.1613 37.61 40.974 37.5432 40.8244 37.4208C40.7321 37.3372 40.6597 37.2341 40.6123 37.119C40.5649 37.0039 40.5438 36.8797 40.5505 36.7554C40.5572 36.6311 40.5915 36.5098 40.6509 36.4005C40.7104 36.2911 40.7935 36.1964 40.8942 36.1232C41.3017 35.7714 41.7819 35.5139 42.3004 35.3692C42.819 35.2245 43.3631 35.1961 43.8939 35.2861C45.0264 35.2847 46.15 35.0864 47.2145 34.7001C46.5764 34.1295 45.7913 33.7487 44.9481 33.6008C44.1049 33.4528 43.2371 33.5436 42.4428 33.8629C40.071 34.5885 38.5362 36.4301 39.0106 38.0486C39.485 39.6671 41.8011 40.281 44.159 39.5554C44.9656 39.3801 45.7117 38.9949 46.3217 38.4388C46.9318 37.8827 47.3841 37.1753 47.6331 36.3883C46.2991 36.8295 44.8875 36.9863 43.4893 36.8487Z" fill="#F4F4F4"/>
<path d="M46.0288 17.552H31.3789V25.2816H46.0288V17.552Z" fill="#F4F4F4"/>
<path d="M166.144 27.8337C165.167 24.1643 162.377 14.6907 158.582 14.6907H146.025C142.23 14.6907 139.439 24.1643 138.463 27.8337C137.835 30.1638 137.988 35.6051 138.184 39.4141C138.248 40.5134 138.73 41.5465 139.532 42.3015C140.334 43.0565 141.394 43.4761 142.495 43.4742H162.112C163.215 43.4759 164.277 43.0543 165.079 42.2964C165.882 41.5385 166.362 40.5019 166.423 39.4001C166.618 35.6051 166.772 30.1638 166.144 27.8337Z" fill="#F4F4F4"/>
<path d="M153.587 27.8337C152.61 24.1643 149.82 14.6907 146.025 14.6907C142.23 14.6907 139.439 24.1643 138.463 27.8337C137.835 30.1638 137.988 35.6051 138.184 39.4141C138.248 40.5134 138.73 41.5465 139.532 42.3015C140.334 43.0565 141.394 43.4761 142.495 43.4742H149.555C150.658 43.4759 151.72 43.0543 152.522 42.2964C153.324 41.5385 153.805 40.5019 153.866 39.4001C154.061 35.6051 154.215 30.1638 153.587 27.8337Z" fill="#F4F4F4"/>
<path d="M158.581 11.1754H146.024V14.6774H158.581V11.1754Z" fill="#F4F4F4"/>
<path d="M164.86 28.8392H155.554V33.1365H164.86V28.8392Z" fill="#F4F4F4"/>
<path d="M87.9966 27.8337C87.02 24.1643 84.2156 14.6907 80.4345 14.6907H67.8775C64.0825 14.6907 61.2921 24.1643 60.3015 27.8337C59.6876 30.1638 59.8271 35.6051 60.0364 39.4141C60.0971 40.5159 60.5779 41.5525 61.38 42.3104C62.182 43.0683 63.2441 43.4898 64.3476 43.4881H83.8807C84.9842 43.4898 86.0463 43.0683 86.8484 42.3104C87.6504 41.5525 88.1313 40.5159 88.192 39.4141C88.471 35.6051 88.6245 30.1638 87.9966 27.8337Z" fill="#F4F4F4"/>
<path d="M75.4396 27.8337C74.4629 24.1643 71.6586 14.6907 67.8775 14.6907C64.0965 14.6907 61.2921 24.1643 60.3015 27.8337C59.6876 30.1638 59.8271 35.6051 60.0364 39.4141C60.0971 40.5159 60.5779 41.5525 61.38 42.3104C62.182 43.0683 63.2441 43.4898 64.3476 43.4881H71.3237C72.4272 43.4898 73.4893 43.0683 74.2913 42.3104C75.0934 41.5525 75.5742 40.5159 75.6349 39.4141C75.914 35.6051 76.0675 30.1638 75.4396 27.8337Z" fill="#F4F4F4"/>
<path d="M80.4352 11.1754H67.8782V14.6774H80.4352V11.1754Z" fill="#F4F4F4"/>
<path d="M86.7138 28.8392H77.4077V33.1365H86.7138V28.8392Z" fill="#F4F4F4"/>
<path d="M196.839 27.8337C195.862 24.1643 193.072 14.6907 189.277 14.6907H176.72C172.925 14.6907 170.134 24.1643 169.158 27.8337C168.53 30.1638 168.683 35.6051 168.879 39.4141C168.943 40.5134 169.425 41.5465 170.227 42.3015C171.029 43.0565 172.089 43.4761 173.19 43.4742H192.807C193.91 43.4759 194.972 43.0543 195.774 42.2964C196.576 41.5385 197.057 40.5019 197.118 39.4001C197.313 35.6051 197.467 30.1638 196.839 27.8337Z" fill="#F4F4F4"/>
<path d="M184.282 27.8337C183.305 24.1643 180.515 14.6907 176.72 14.6907C172.925 14.6907 170.134 24.1643 169.158 27.8337C168.53 30.1638 168.683 35.6051 168.879 39.4141C168.943 40.5134 169.425 41.5465 170.227 42.3015C171.029 43.0565 172.089 43.4761 173.19 43.4742H180.25C181.353 43.4759 182.415 43.0543 183.217 42.2964C184.019 41.5385 184.5 40.5019 184.561 39.4001C184.756 35.6051 184.91 30.1638 184.282 27.8337Z" fill="#F4F4F4"/>
<path d="M189.276 11.1754H176.719V14.6774H189.276V11.1754Z" fill="#F4F4F4"/>
<path d="M195.555 28.8392H186.249V33.1365H195.555V28.8392Z" fill="#F4F4F4"/>
<path d="M97.8204 147.923C99.0064 143.472 102.411 131.92 107.029 131.92H122.376C126.995 131.92 130.385 143.472 131.585 147.923C132.338 150.713 132.157 157.396 131.92 162.042C131.845 163.385 131.257 164.647 130.278 165.569C129.299 166.49 128.004 167.001 126.66 166.995H102.732C101.384 167.012 100.083 166.51 99.0956 165.593C98.1085 164.676 97.5121 163.415 97.4298 162.07C97.2344 157.396 97.053 150.783 97.8204 147.923Z" fill="#F4F4F4"/>
<path d="M113.11 147.923C114.296 143.472 117.7 131.92 122.318 131.92C126.936 131.92 130.327 143.472 131.527 147.923C132.28 150.713 132.099 157.396 131.861 162.042C131.786 163.385 131.199 164.647 130.22 165.569C129.241 166.49 127.946 167.001 126.601 166.995H118.021C116.682 167.001 115.393 166.494 114.417 165.578C113.441 164.662 112.853 163.406 112.775 162.07C112.524 157.396 112.342 150.783 113.11 147.923Z" fill="#F4F4F4"/>
<path d="M107.014 131.92H122.306V127.65H107.014V131.92Z" fill="#F4F4F4"/>
<path d="M99.3676 154.409H110.697V149.177H99.3676V154.409Z" fill="#F4F4F4"/>
<path d="M60.4422 147.923C61.6281 143.472 65.0324 131.92 69.6506 131.92H84.9981C89.6163 131.92 93.0206 143.472 94.2066 147.923C94.974 150.713 94.7926 157.396 94.5414 162.042C94.4664 163.385 93.8788 164.647 92.9 165.569C91.9212 166.49 90.6259 167.001 89.2814 166.995H65.3394C63.9974 166.998 62.7056 166.485 61.7297 165.564C60.7539 164.643 60.1683 163.382 60.0933 162.042C59.8562 157.396 59.6748 150.783 60.4422 147.923Z" fill="#F4F4F4"/>
<path d="M75.7323 147.923C76.9182 143.472 80.3225 131.92 84.9407 131.92C89.5589 131.92 92.9633 143.472 94.1492 147.923C94.9166 150.713 94.7353 157.396 94.4841 162.042C94.409 163.385 93.8215 164.647 92.8427 165.569C91.8639 166.49 90.5685 167.001 89.2241 166.995H80.6853C79.3433 166.998 78.0515 166.485 77.0757 165.564C76.0998 164.643 75.5142 163.382 75.4393 162.042C75.1044 157.396 74.9649 150.783 75.7323 147.923Z" fill="#F4F4F4"/>
<path d="M69.6506 131.92H84.9424V127.65H69.6508L69.6506 131.92Z" fill="#F4F4F4"/>
<path d="M62.0045 154.409H73.3337V149.177H62.0045V154.409Z" fill="#F4F4F4"/>
<path d="M141.895 79.7508C140.886 79.5349 139.833 79.6832 138.923 80.1694V78.6067H111.13V89.3499C111.129 91.7058 111.728 94.0231 112.87 96.0834C114.012 98.1437 115.661 99.879 117.66 101.126L116.613 104.614H133.426L132.379 101.126C134.813 99.6031 136.718 97.3667 137.835 94.7215C137.954 94.7869 138.08 94.8384 138.211 94.875C141.169 95.6005 144.392 92.7961 145.411 88.6244C146.429 84.4527 144.867 80.5182 141.895 79.7508ZM143.709 88.2058C143.011 90.9963 140.82 92.9636 138.797 92.4752C138.716 92.4487 138.637 92.416 138.56 92.3776C138.795 91.3853 138.917 90.3696 138.923 89.3499V82.6808C139.268 82.444 139.657 82.2799 140.067 82.1983C140.477 82.1168 140.9 82.1195 141.309 82.2064C143.332 82.6947 144.406 85.4154 143.709 88.2617V88.2058Z" fill="#F4F4F4"/>
<path d="M181.143 79.7508C180.134 79.5349 179.081 79.6832 178.171 80.1694V78.6067H150.308V89.3499C150.307 91.7058 150.906 94.0231 152.048 96.0834C153.19 98.1437 154.839 99.879 156.838 101.126L155.791 104.614H172.618L171.557 101.126C173.991 99.6031 175.897 97.3667 177.013 94.7215C177.133 94.7846 177.259 94.836 177.389 94.875C180.347 95.6005 183.57 92.7961 184.589 88.6244C185.607 84.4527 184.031 80.5182 181.143 79.7508ZM182.956 88.2058C182.259 90.9963 180.068 92.9636 178.045 92.4752C177.964 92.4487 177.884 92.416 177.808 92.3776C178.043 91.3853 178.164 90.3696 178.171 89.3499V82.6808C178.515 82.444 178.905 82.2799 179.315 82.1983C179.725 82.1168 180.148 82.1195 180.557 82.2064C182.538 82.6947 183.584 85.4154 182.887 88.2617L182.956 88.2058Z" fill="#F4F4F4"/>
<path d="M50.1452 79.7508C49.1363 79.5349 48.0835 79.6832 47.1734 80.1694V78.6067H19.3805V89.3499C19.3792 91.7058 19.9779 94.0231 21.1203 96.0834C22.2628 98.1437 23.9112 99.879 25.9102 101.126L24.8638 104.614H41.6902L40.6298 101.126C43.0638 99.6031 44.9689 97.3667 46.0851 94.7215C46.2055 94.7846 46.3317 94.836 46.4618 94.875C49.4197 95.6005 52.6427 92.7961 53.6612 88.6244C54.6797 84.4527 53.1031 80.5182 50.1452 79.7508ZM51.959 88.2058C51.2614 90.9963 49.0709 92.9636 47.0478 92.4752C46.9664 92.4487 46.8871 92.416 46.8106 92.3776C47.0453 91.3853 47.1671 90.3696 47.1734 89.3499V82.6808C47.5181 82.444 47.9074 82.2799 48.3176 82.1983C48.7277 82.1168 49.1502 82.1195 49.5592 82.2064C51.5823 82.6947 52.6566 85.4154 51.959 88.2617V88.2058Z" fill="#F4F4F4"/>
<path d="M160.673 165.613H140.289L137.819 125.347H163.143L160.673 165.613Z" fill="#F4F4F4"/>
<path d="M165.433 127.706H135.533L136.761 122.167H164.191L165.433 127.706Z" fill="#F4F4F4"/>
<path d="M161.373 154.214L162.545 135.113H138.421L139.593 154.214H161.373Z" fill="#F4F4F4"/>
<path d="M156.126 144.254C156.14 145.374 155.82 146.473 155.208 147.412C154.596 148.35 153.718 149.085 152.687 149.524C151.656 149.962 150.517 150.084 149.417 149.874C148.316 149.664 147.303 149.131 146.505 148.344C145.708 147.556 145.163 146.55 144.939 145.452C144.715 144.354 144.823 143.214 145.249 142.177C145.674 141.141 146.398 140.254 147.329 139.63C148.26 139.006 149.355 138.673 150.476 138.673C151.214 138.663 151.948 138.801 152.633 139.077C153.318 139.354 153.941 139.763 154.467 140.282C154.993 140.801 155.41 141.42 155.695 142.102C155.98 142.783 156.126 143.515 156.126 144.254Z" fill="#F4F4F4"/>
<path d="M192.889 165.613H172.504L170.035 125.347H195.358L192.889 165.613Z" fill="#F4F4F4"/>
<path d="M197.648 127.706H167.748L168.976 122.167H196.406L197.648 127.706Z" fill="#F4F4F4"/>
<path d="M193.588 154.214L194.76 135.113H170.637L171.809 154.214H193.588Z" fill="#F4F4F4"/>
<path d="M188.342 144.254C188.356 145.374 188.036 146.473 187.424 147.412C186.811 148.35 185.933 149.085 184.902 149.524C183.871 149.962 182.733 150.084 181.632 149.874C180.531 149.664 179.518 149.131 178.721 148.344C177.924 147.556 177.378 146.55 177.155 145.452C176.931 144.354 177.039 143.214 177.464 142.177C177.89 141.141 178.614 140.254 179.545 139.63C180.475 139.006 181.57 138.673 182.691 138.673C183.43 138.663 184.163 138.801 184.848 139.077C185.533 139.354 186.157 139.763 186.683 140.282C187.208 140.801 187.625 141.42 187.91 142.102C188.195 142.783 188.342 143.515 188.342 144.254Z" fill="#F4F4F4"/>
</svg>
