<svg id="Group_64" data-name="Group 64" xmlns="http://www.w3.org/2000/svg" width="19.369" height="19.478" viewBox="0 0 19.369 19.478">
  <path id="Path_211" data-name="Path 211" d="M356.621,1279.3a8.945,8.945,0,0,1-1.637-1.35,7.843,7.843,0,0,1-1.491-2.38,7.53,7.53,0,0,1-.444-1.72,7.007,7.007,0,0,1-.04-.96c0-.98,0-1.95,0-2.93a.553.553,0,0,1,.587-.59h14.471c.464,0,.617.14.712.45a2.145,2.145,0,0,1,.009.57c.307,0,.609,0,.91.01a2.693,2.693,0,0,1,1.559.58,2.766,2.766,0,0,1,.954,1.3,3.015,3.015,0,0,1,.126,1.45,2.6,2.6,0,0,1-.541,1.3,2.872,2.872,0,0,1-1.764,1.11,11.074,11.074,0,0,1-1.822.05.276.276,0,0,0-.272.17,7.789,7.789,0,0,1-2.724,2.89c-.035.02-.071.04-.155.08h3.1a.571.571,0,0,1,.332,1.07.768.768,0,0,0-.118.08H353.423c-.372-.19-.5-.45-.382-.78a.537.537,0,0,1,.561-.37h2.939c.042-.01.084-.01.126-.02C356.652,1279.31,356.637,1279.3,356.621,1279.3Zm11.024-8.75-.034-.03c-.038,0-.076-.01-.114-.01H354.316c-.049,0-.1.01-.155.01,0,.05-.006.09-.006.12,0,.78-.013,1.55.006,2.32a7.66,7.66,0,0,0,.123,1.24,5.8,5.8,0,0,0,.65,1.74,6.557,6.557,0,0,0,1.662,1.93,6.282,6.282,0,0,0,1.721.98,6.646,6.646,0,0,0,2.325.48,13.147,13.147,0,0,0,1.4-.11,5.7,5.7,0,0,0,1.971-.62,7.2,7.2,0,0,0,1.455-.97,6.4,6.4,0,0,0,1.39-1.7,6.029,6.029,0,0,0,.789-2.89C367.668,1272.21,367.647,1271.38,367.645,1270.55Zm1.15.98a11.441,11.441,0,0,1-.305,3.5c.414,0,.788.02,1.16,0a1.611,1.611,0,0,0,1.1-.54,1.761,1.761,0,0,0-.656-2.85,4.03,4.03,0,0,0-1.3-.11Z" transform="translate(-353 -1261.002)" fill="rgba(30,30,30,0.5)"/>
  <path id="Path_212" data-name="Path 212" d="M362.178,1263.17a1.8,1.8,0,0,1-.518,1.17c-.18.2-.371.39-.568.57a.955.955,0,0,0-.073,1.38c.107.14.227.28.343.42a.6.6,0,0,1-.052.72.55.55,0,0,1-.751.07,2.772,2.772,0,0,1-.929-1.57,1.847,1.847,0,0,1,.421-1.57c.2-.25.448-.45.672-.68a.846.846,0,0,0,.293-.82,3.34,3.34,0,0,0-.385-.72,4.072,4.072,0,0,1-.29-.49.444.444,0,0,1,.161-.49.5.5,0,0,1,.489-.14,1.166,1.166,0,0,1,.632.51,2.546,2.546,0,0,1,.555,1.64Z" transform="translate(-353 -1261.002)" fill="rgba(30,30,30,0.5)"/>
  <path id="Path_213" data-name="Path 213" d="M365.826,1263.07a1.982,1.982,0,0,1-.552,1.3c-.2.22-.431.42-.635.64a.873.873,0,0,0-.067,1.15,1.894,1.894,0,0,0,.311.41.574.574,0,0,1,.066.86.536.536,0,0,1-.852-.01,2.741,2.741,0,0,1-.821-1.48,1.994,1.994,0,0,1,.622-1.82c.178-.18.37-.35.54-.54a.945.945,0,0,0-.032-1.28c-.123-.18-.293-.34-.4-.53a.532.532,0,0,1,.46-.74c.389-.04.572.22.769.46A2.564,2.564,0,0,1,365.826,1263.07Z" transform="translate(-353 -1261.002)" fill="rgba(30,30,30,0.5)"/>
  <path id="Path_214" data-name="Path 214" d="M358.527,1262.93a2.148,2.148,0,0,1-.871,1.77,1.135,1.135,0,0,0-.541.97,1.418,1.418,0,0,0,.461.86.678.678,0,0,1,.226.66.577.577,0,0,1-.953.26,2.838,2.838,0,0,1-.838-1.46,1.883,1.883,0,0,1,.463-1.7,7.53,7.53,0,0,1,.62-.63.906.906,0,0,0,.159-1.15,2.447,2.447,0,0,0-.392-.52.606.606,0,0,1-.155-.59.494.494,0,0,1,.424-.39.7.7,0,0,1,.436.09,2.467,2.467,0,0,1,.961,1.82Z" transform="translate(-353 -1261.002)" fill="rgba(30,30,30,0.5)"/>
</svg>
