<svg width="26" height="25" viewBox="0 0 26 25" fill="none" xmlns="http://www.w3.org/2000/svg">
<path d="M23.2576 16.8926H23.8782C24.705 16.8926 24.9507 17.0111 24.9308 17.5998C24.8979 18.5748 24.4581 19.7078 22.6992 20.0183" stroke="white" stroke-width="1.41" stroke-linecap="round"/>
<path d="M17.7622 21.4096C16.2554 20.251 16.0333 18.6078 16.0006 16.8931C15.9865 16.1524 16.2015 16 17.1874 16H21.9572C22.9431 16 23.1581 16.1524 23.1439 16.8931C23.1112 18.6078 22.8892 20.251 21.3824 21.4096C20.9536 21.7392 20.5918 21.805 19.9828 21.805H19.1618C18.5528 21.805 18.191 21.7392 17.7622 21.4096Z" stroke="white" stroke-width="1.41" stroke-linecap="round"/>
<path d="M17.8262 5.8335C16.8176 5.8335 16 6.93427 16 8.03505C16 9.31928 16.1826 10.2366 16.9131 11.3374C17.4684 12.0812 18.2098 12.2677 19 11.7467C19.1686 11.6356 19.4055 11.6356 19.5742 11.7467C20.3644 12.2677 21.1058 12.0812 21.6611 11.3374C22.3916 10.2366 22.5742 9.31928 22.5742 8.03505C22.5742 6.93427 21.7566 5.8335 20.748 5.8335C20.2274 5.8335 19.7577 6.12017 19.425 6.42975C19.3477 6.50168 19.2265 6.50168 19.1492 6.42975C18.8165 6.12017 18.3468 5.8335 17.8262 5.8335Z" stroke="white" stroke-width="1.41" stroke-linejoin="round"/>
<path d="M19.2891 6.19823C19.2891 5.71126 19.5082 4.7373 20.3848 4.7373" stroke="white" stroke-width="1.41" stroke-linecap="round" stroke-linejoin="round"/>
<path d="M1 7H12" stroke="white" stroke-width="1.41" stroke-linecap="round"/>
<path d="M1 10H6" stroke="white" stroke-width="1.41" stroke-linecap="round"/>
<path d="M1 20H6" stroke="white" stroke-width="1.41" stroke-linecap="round"/>
<path d="M1 17H12" stroke="white" stroke-width="1.41" stroke-linecap="round"/>
</svg>
